<?xml version="1.0" encoding="UTF-8" standalone="no"?>
<svg xmlns:dc="http://purl.org/dc/elements/1.1/" xmlns:cc="http://creativecommons.org/ns#" xmlns:rdf="http://www.w3.org/1999/02/22-rdf-syntax-ns#" xmlns:svg="http://www.w3.org/2000/svg" xmlns="http://www.w3.org/2000/svg" viewBox="0 0 2500 2500" xml:space="preserve" version="1.1">
    <defs id="defs6">
        <clipPath id="clipPath18" clipPathUnits="userSpaceOnUse">
            <path id="path20" d="m 0,2000 2000,0 L 2000,0 0,0 0,2000 Z" />
        </clipPath>
    </defs>
    <g transform="matrix(1.25,0,0,-1.25,0,2500)" id="g10">
        <path id="path12" style="fill:#FFFFFF;fill-opacity:1;fill-rule:nonzero;stroke:none" d="m 651.083,903.619 735.89,0 0,-180.493 -735.89,0 0,180.493 z m 0,326.275 735.89,0 0,-180.493 -735.89,0 0,180.493 z" />
        <g id="g14">
            <g clip-path="url(#clipPath18)" id="g16">
                <g transform="translate(974.9966,1821.1078)" id="g22">
                    <path id="path24" style="fill:#FFFFFF;fill-opacity:1;fill-rule:nonzero;stroke:none" d="m 0,0 c 8.855,0.281 17.428,0 26.351,0 456.839,0 827.607,-370.75 827.607,-827.567 0,-456.818 -370.768,-827.568 -827.607,-827.568 -456.84,0 -827.608,370.75 -827.608,827.568 C -801.257,-379.672 -444.514,-14.093 0,0 m 0.976,171.759 c -539.755,-13.689 -974,-456.317 -974,-999.326 0,-551.629 447.72,-999.327 999.375,-999.327 551.655,0 999.375,447.698 999.375,999.327 0,551.628 -447.72,999.326 -999.375,999.326 -8.62,0 -16.808,0.218 -25.375,0" />
                </g>
            </g>
        </g>
    </g>
</svg>
